# xmcd CD database file
#
# Track frame offsets:
#	150
#	12585
#	38935
#	56427
#	74737
#	108910
#	129775
#	148995
#	173957
#
# Disc length: 2739 seconds
#
# Revision: 2
# Processed by: cddbd v1.5.2PL0 Copyright (c) Steve Scherf et al.
# Submitted via: CDex 1.51
#
DISCID=830ab109
DTITLE=Eddy Clearwater - Flimdoozie
DYEAR=1900
DGENRE=Blues
TTITLE0=Johnny B Goode
TTITLE1=All About The Blues
TTITLE2=Sugar Baby
TTITLE3=Do This Town Tonight
TTITLE4=Black Night - Falling Down Heavy
TTITLE5=Flimdoozie
TTITLE6=I.R.S. Man
TTITLE7=Sail The Ship
TTITLE8=Don't Take My Blues
EXTD=
EXTT0=
EXTT1=
EXTT2=
EXTT3=
EXTT4=
EXTT5=
EXTT6=
EXTT7=
EXTT8=
PLAYORDER=
